<svg width="200" height="189" xmlns="http://www.w3.org/2000/svg" version="1.1">
 <g>
  <title>Layer 1</title>
  <g id="#eff1f3ff"/>
  <g id="#191919ff">
   <path id="svg_1" d="m86.39,4.75c15.31,-3.47 31.82,3.26 41.53,15.33c6.65,8.08 9.71,18.54 10.2,28.87c-0.18,1.96 1.85,2.62 3.12,3.62c-0.17,0.56 -0.51,1.67 -0.69,2.23c2.84,5.55 3.75,12.68 0.45,18.22c-3.32,5.61 -12.62,7.23 -16.82,1.83c-1.22,-1.46 -1.94,-3.23 -2.75,-4.92c1.68,-4.28 2.5,-8.82 3.26,-13.34c2.23,-0.9 4.97,-1.32 6.38,-3.5c2.55,-4.02 1.75,-10.68 -3.08,-12.62c-2.24,0.39 -3.92,2.15 -5.76,3.36c-4.31,-6.77 -11.16,-11.67 -19.07,-13.24c-7.22,-2 -14.54,-3.85 -22.03,-4.5c-3.66,5.43 -6.51,11.57 -6.87,18.2c2.47,-0.01 5.11,-0.24 7.3,1.16c-2.31,0.39 -4.84,0 -6.94,1.21c-2.05,4.47 -3.46,9.43 -7.32,12.79c-2.08,-0.71 -4.39,-1.88 -6.57,-0.83c-2.18,2.03 -2.88,5.4 -1.85,8.16c1.07,2.08 3.2,3.26 4.88,4.79c0.39,0.34 1.19,1.03 1.59,1.37c-4.64,3.05 -8.85,6.85 -11.98,11.45c-1.86,2.64 -2.49,5.96 -4.46,8.52c-5.45,5.78 -9.78,12.49 -13.88,19.26c-5.46,9.55 -9.95,20.44 -8.67,31.66c0.16,2.23 1.36,4.36 3.33,5.47c5.02,2.89 11,3.46 16.68,2.97c1.33,-0.06 2.66,-0.09 4,-0.09l0.88,0.29c-7.45,0.09 -14.89,0.62 -22.34,0.71c-4.26,-5.62 -4.73,-13.09 -3.25,-19.77c3.02,-14.72 11.81,-27.35 20.75,-39.1c1.75,-2.01 1.23,-4.81 1.46,-7.25c0.3,-9.76 1.74,-19.47 4.47,-28.85c1.81,-4.98 -0.68,-10.12 -0.14,-15.22c0.2,-18.89 16.42,-34.46 34.19,-38.24z" fill="#191919"/>
  </g>
  <g id="#ffffffff">
   <path id="svg_2" d="m80.13,26.09c7.49,0.65 14.81,2.5 22.03,4.5c5.14,4.91 9.42,10.89 11.34,17.81c2.51,8.64 1.14,17.92 -1.93,26.24c-1.63,4.98 -4.88,9.38 -5.48,14.69c-1.66,1.42 -3.22,2.99 -5.07,4.19c-5.48,0.52 -10.68,-2.04 -15.6,-4.13c-2.54,-6.58 -7.51,-11.81 -11.09,-17.82c-2.6,-4.21 -8.04,-1.11 -11.57,0c-1.68,-1.53 -3.81,-2.71 -4.88,-4.79c-1.03,-2.76 -0.33,-6.13 1.85,-8.16c2.18,-1.05 4.49,0.12 6.57,0.83c3.86,-3.36 5.27,-8.32 7.32,-12.79c2.1,-1.21 4.63,-0.82 6.94,-1.21c-2.19,-1.4 -4.83,-1.17 -7.3,-1.16c0.36,-6.63 3.21,-12.77 6.87,-18.2m15.77,16.14c3.2,-1.86 6.51,-3.45 10.33,-3.12c-2.82,-3.46 -9.19,-0.84 -10.33,3.12m-7.73,3.29c-0.08,3.76 0.44,7.53 1.37,11.16c-0.46,3.09 -0.83,6.2 -0.74,9.33c0.32,1.39 -0.41,3.67 1.25,4.33c0.87,-0.15 2.59,-0.44 3.45,-0.59c2.22,2.7 5.39,-2.41 5.37,-4.81c-1.47,0.94 -2.7,2.18 -3.93,3.39c-2.91,-7.49 -4.63,-15.42 -5.6,-23.38c-0.29,0.14 -0.88,0.43 -1.17,0.57m13.96,0.49c-2.26,3.85 1.66,8.89 5.89,8.9c0.99,-2.72 -0.82,-5.38 -2.43,-7.44c-0.96,-0.66 -2.3,-3.05 -3.46,-1.46m-26.9,5.24c0.09,2.37 -0.56,5.26 1.53,6.99c1.17,1.65 3.26,1.59 5.06,1.66c0.04,-3.38 -2.05,-6.09 -4.14,-8.52c-0.61,-0.03 -1.83,-0.1 -2.45,-0.13m35.94,2.02c-0.53,1.63 0.02,2.19 1.65,1.66c0.52,-1.63 -0.02,-2.19 -1.65,-1.66m-4.86,3.92c-0.51,1.62 0.04,2.17 1.67,1.66c0.52,-1.64 -0.04,-2.19 -1.67,-1.66m4.8,0.1c-1.55,2.99 3.36,0.13 0,0m-30.01,3.85c-1.52,0.39 -0.6,2.71 0.78,2.14c1.5,-0.4 0.59,-2.7 -0.78,-2.14m-5.87,2.15c-0.52,1.63 0.03,2.19 1.66,1.67c0.52,-1.63 -0.03,-2.19 -1.66,-1.67m4.04,0.82c-1.72,0.37 -1.18,3.3 0.61,2.69c1.78,-0.33 1.21,-3.37 -0.61,-2.69m20.58,10.85c-2.37,1.55 -5.23,1.52 -7.94,1.56c1.22,2.95 5.14,1.33 7.39,0.62c3.67,-2.01 7.84,-4.88 8.67,-9.26c-3.16,1.83 -4.79,5.46 -8.12,7.08z" fill="#ffffff"/>
   <path id="svg_3" d="m70.99,75.62c2.33,-0.21 5.08,-0.4 6.34,2.01c-2.08,0.65 -4.15,1.42 -5.78,2.93c2.62,-0.12 6.09,-2.04 7.71,1.04c-1.58,0.54 -3.15,1.07 -4.67,1.74c2.08,0.19 4.19,0.13 6.25,0.52c1.18,0.86 1.82,2.22 2.64,3.4c-2.65,0.29 -5.35,-0.16 -7.97,0.36c-2.84,1.14 -5.4,3.02 -7.39,5.34c1.14,2.2 4.26,1.61 6.26,2.48c-2.97,5.31 -9.92,4.59 -15.02,3.7c-3.54,4.18 -7.3,8.24 -10.07,13.01c-4.66,8.06 -8.8,17.38 -6.77,26.89c1.49,-0.55 3.27,-0.86 4.2,-2.29c3.48,-4.52 4.8,-10.56 9.45,-14.18c0.55,8.87 0.96,17.76 2.22,26.57c-1.35,0.67 -2.7,1.35 -4.08,1.97c-1.64,0.37 -3.3,0.71 -4.94,1.07c-1.34,0 -2.67,0.03 -4,0.09c-2.25,-4.18 -5.78,-7.66 -7.23,-12.26c-1.38,-4.2 -2.09,-8.73 -1.23,-13.13c2.23,-12.66 8.56,-24.07 15.07,-34.98c2.48,-4.06 3.65,-9.3 7.88,-12c2.71,-1.72 5.83,-0.08 8.46,0.96c0.06,-2.1 0.65,-4.2 2.67,-5.24z" fill="#ffffff"/>
   <path id="svg_4" d="m91.47,96.96c3.38,1.11 6.9,1.73 10.47,1.48c3.15,0.8 4.51,3.91 6.03,6.44c-3.13,0.21 -6.25,0.55 -9.31,1.21c-2.03,0.39 -4.08,0.58 -6.13,0.79c-0.34,-3.31 -0.95,-6.59 -1.06,-9.92z" fill="#ffffff"/>
   <path id="svg_5" d="m156.05,121.91c11.84,5.93 21.12,17.5 23.33,30.68c0.61,5.42 1.26,11.64 -2.81,15.98c-4.04,5.65 -11.16,7.21 -17.63,8.14c-4.27,0.78 -8.7,1.18 -12.97,0.14c-5.49,-1.15 -11.14,-1.67 -16.44,-3.6c0.35,-2.6 0.79,-5.18 1.24,-7.76c9.01,0 18.03,0.22 27.03,-0.12c3.43,-0.56 7.51,-1.27 9.62,-4.33c-0.06,-8.12 -4.25,-15.89 -10.3,-21.17c-0.98,-1.04 -2.34,-1.79 -2.92,-3.14c0.2,-4.98 1.34,-9.86 1.85,-14.82z" fill="#ffffff"/>
   <path id="svg_6" d="m117.21,158.74c4.38,0.92 6.59,5.47 10.89,6.4c0.08,3.41 -0.38,6.8 -0.67,10.19c-5.48,1.95 -11.35,3.33 -17.17,2.23c-2.78,-0.7 -4.64,-3.03 -6.48,-5.05c1.6,0.17 3.2,0.35 4.81,0.51c-1.24,-1.56 -2.55,-3.06 -3.81,-4.6c1.42,0.13 2.84,0.27 4.26,0.4c-1.06,-1.14 -2.15,-2.25 -3.22,-3.37c1.38,0.3 2.76,0.59 4.14,0.89c-1.29,-1.66 -2.47,-3.41 -3.43,-5.29c3.46,1.98 7.3,2.98 11.3,2.66c-0.21,-1.66 -0.43,-3.32 -0.62,-4.97z" fill="#ffffff"/>
  </g>
  <g id="#e6e6e6ff">
   <path id="svg_7" d="m102.16,30.59c7.91,1.57 14.76,6.47 19.07,13.24c1.84,-1.21 3.52,-2.97 5.76,-3.36c4.83,1.94 5.63,8.6 3.08,12.62c-1.41,2.18 -4.15,2.6 -6.38,3.5c-0.76,4.52 -1.58,9.06 -3.26,13.34c-3.1,7.5 -7.9,14.4 -14.34,19.4c0.6,-5.31 3.85,-9.71 5.48,-14.69c3.07,-8.32 4.44,-17.6 1.93,-26.24c-1.92,-6.92 -6.2,-12.9 -11.34,-17.81z" fill="#e6e6e6"/>
   <path id="svg_8" d="m101.94,98.44c3.05,-0.98 5.57,-2.96 7.61,-5.38c1.51,4.59 3.88,8.81 6.02,13.13c-5.64,-0.45 -11.28,-0.16 -16.91,-0.1c3.06,-0.66 6.18,-1 9.31,-1.21c-1.52,-2.53 -2.88,-5.64 -6.03,-6.44z" fill="#e6e6e6"/>
  </g>
  <g id="#212121ff">
   <path id="svg_9" d="m95.9,42.23c1.14,-3.96 7.51,-6.58 10.33,-3.12c-3.82,-0.33 -7.13,1.26 -10.33,3.12z" fill="#212121"/>
   <path id="svg_10" d="m88.17,45.52c0.29,-0.14 0.88,-0.43 1.17,-0.57c0.97,7.96 2.69,15.89 5.6,23.38c1.23,-1.21 2.46,-2.45 3.93,-3.39c0.02,2.4 -3.15,7.51 -5.37,4.81c-1.44,-4.31 -2.74,-8.68 -3.96,-13.07c-0.93,-3.63 -1.45,-7.4 -1.37,-11.16z" fill="#212121"/>
   <path id="svg_11" d="m140.24,52.57c10.44,6.27 15.85,19.53 13.7,31.37c-1.71,9.26 -9.61,16.49 -18.61,18.6c-6.41,1.93 -13.08,0.67 -19.49,-0.5c1.35,2 2.39,4.9 5.24,4.93c17.06,2.79 34.07,9.2 47.01,20.95c9.99,8.99 15.07,22.71 13.66,36.06c-2.6,5.66 -7.02,11.02 -13.27,12.68c-6.31,1.82 -12.91,3.24 -19.51,2.76c-6.56,-0.83 -12.94,-2.77 -19.55,-3.26c-0.5,-0.21 -1.49,-0.62 -1.99,-0.83c0.29,-3.39 0.75,-6.78 0.67,-10.19c0.69,-1.01 1.65,-1.49 2.88,-1.44c9.1,-0.43 18.26,0.61 27.33,-0.47c2.45,-0.59 5.65,-0.89 7.02,-3.3c-0.14,-2.81 -1.06,-5.49 -2.03,-8.1c-2.21,-4.98 -5.6,-9.61 -10.38,-12.39c-0.63,4.26 -1.4,8.53 -1.24,12.84c-0.45,0.1 -1.37,0.31 -1.83,0.41c1.19,-5.62 1.56,-11.35 2.06,-17.05c0.79,-5.52 1.58,-11.07 1.43,-16.66c-9.47,-5.27 -20.02,-9.49 -31.01,-9.48c-20.2,-3.64 -41.34,0.17 -59.63,9.27c-1.63,0.96 -3.94,1.99 -3.76,4.25c-0.29,9.79 1.11,19.54 1.88,29.28c-2.23,0 -4.46,-0.27 -6.51,-1.19c1.38,-0.62 2.73,-1.3 4.08,-1.97c-1.26,-8.81 -1.67,-17.7 -2.22,-26.57c-4.65,3.62 -5.97,9.66 -9.45,14.18c-0.93,1.43 -2.71,1.74 -4.2,2.29c-2.03,-9.51 2.11,-18.83 6.77,-26.89c2.77,-4.77 6.53,-8.83 10.07,-13.01c5.1,0.89 12.05,1.61 15.02,-3.7c-2,-0.87 -5.12,-0.28 -6.26,-2.48c1.99,-2.32 4.55,-4.2 7.39,-5.34c2.62,-0.52 5.32,-0.07 7.97,-0.36c-0.82,-1.18 -1.46,-2.54 -2.64,-3.4c-2.06,-0.39 -4.17,-0.33 -6.25,-0.52c1.52,-0.67 3.09,-1.2 4.67,-1.74c-1.62,-3.08 -5.09,-1.16 -7.71,-1.04c1.63,-1.51 3.7,-2.28 5.78,-2.93c-1.26,-2.41 -4.01,-2.22 -6.34,-2.01c-0.77,0.03 -2.33,0.11 -3.11,0.14c2.1,-0.96 4.24,-1.83 6.34,-2.76c-1.07,-0.85 -2.19,-1.62 -3.37,-2.3c-2.3,0.25 -4.46,1.21 -6.5,2.24c-0.4,-0.34 -1.2,-1.03 -1.59,-1.37c3.53,-1.11 8.97,-4.21 11.57,0c3.58,6.01 8.55,11.24 11.09,17.82c4.92,2.09 10.12,4.65 15.6,4.13c1.85,-1.2 3.41,-2.77 5.07,-4.19c6.44,-5 11.24,-11.9 14.34,-19.4c0.81,1.69 1.53,3.46 2.75,4.92c4.2,5.4 13.5,3.78 16.82,-1.83c3.3,-5.54 2.39,-12.67 -0.45,-18.22c0.18,-0.56 0.52,-1.67 0.69,-2.23m-38.3,45.87c-3.57,0.25 -7.09,-0.37 -10.47,-1.48c0.11,3.33 0.72,6.61 1.06,9.92c2.05,-0.21 4.1,-0.4 6.13,-0.79c5.63,-0.06 11.27,-0.35 16.91,0.1c-2.14,-4.32 -4.51,-8.54 -6.02,-13.13c-2.04,2.42 -4.56,4.4 -7.61,5.38m-50.99,13.16c-2.8,4.01 -4.76,8.54 -6.29,13.17c-1.3,4.01 -2.13,8.44 -0.74,12.54c3.8,-3.95 5.53,-9.32 8.74,-13.7c1.97,-3.03 5.32,-4.64 8.33,-6.45c-3.77,-1.08 -6.64,-4.09 -10.04,-5.56m105.1,10.31c-0.51,4.96 -1.65,9.84 -1.85,14.82c0.58,1.35 1.94,2.1 2.92,3.14c6.05,5.28 10.24,13.05 10.3,21.17c-2.11,3.06 -6.19,3.77 -9.62,4.33c-9,0.34 -18.02,0.12 -27.03,0.12c-0.45,2.58 -0.89,5.16 -1.24,7.76c5.3,1.93 10.95,2.45 16.44,3.6c4.27,1.04 8.7,0.64 12.97,-0.14c6.47,-0.93 13.59,-2.49 17.63,-8.14c4.07,-4.34 3.42,-10.56 2.81,-15.98c-2.21,-13.18 -11.49,-24.75 -23.33,-30.68z" fill="#212121"/>
   <path id="svg_12" d="m99.85,74.96c3.33,-1.62 4.96,-5.25 8.12,-7.08c-0.83,4.38 -5,7.25 -8.67,9.26c-2.25,0.71 -6.17,2.33 -7.39,-0.62c2.71,-0.04 5.57,-0.01 7.94,-1.56z" fill="#212121"/>
  </g>
  <g id="#161616ff">
   <path id="svg_13" d="m102.13,46.01c1.16,-1.59 2.5,0.8 3.46,1.46c1.61,2.06 3.42,4.72 2.43,7.44c-4.23,-0.01 -8.15,-5.05 -5.89,-8.9z" fill="#161616"/>
  </g>
  <g id="#141414ff">
   <path id="svg_14" d="m75.23,51.25c0.62,0.03 1.84,0.1 2.45,0.13c2.09,2.43 4.18,5.14 4.14,8.52c-1.8,-0.07 -3.89,-0.01 -5.06,-1.66c-2.09,-1.73 -1.44,-4.62 -1.53,-6.99z" fill="#141414"/>
  </g>
  <g id="#939393ff">
   <path id="svg_15" d="m111.17,53.27c1.63,-0.53 2.17,0.03 1.65,1.66c-1.63,0.53 -2.18,-0.03 -1.65,-1.66z" fill="#939393"/>
  </g>
  <g id="#e5e5e5ff">
   <path id="svg_16" d="m89.54,56.68c1.22,4.39 2.52,8.76 3.96,13.07c-0.86,0.15 -2.58,0.44 -3.45,0.59c-1.66,-0.66 -0.93,-2.94 -1.25,-4.33c-0.09,-3.13 0.28,-6.24 0.74,-9.33z" fill="#e5e5e5"/>
  </g>
  <g id="#a4a4a4ff">
   <path id="svg_17" d="m106.31,57.19c1.63,-0.53 2.19,0.02 1.67,1.66c-1.63,0.51 -2.18,-0.04 -1.67,-1.66z" fill="#a4a4a4"/>
  </g>
  <g id="#7b7b7bff">
   <path id="svg_18" d="m111.11,57.29c3.36,0.13 -1.55,2.99 0,0z" fill="#7b7b7b"/>
  </g>
  <g id="#b3b3b3ff">
   <path id="svg_19" d="m81.1,61.14c1.37,-0.56 2.28,1.74 0.78,2.14c-1.38,0.57 -2.3,-1.75 -0.78,-2.14z" fill="#b3b3b3"/>
  </g>
  <g id="#a6a6a6ff">
   <path id="svg_20" d="m75.23,63.29c1.63,-0.52 2.18,0.04 1.66,1.67c-1.63,0.52 -2.18,-0.04 -1.66,-1.67z" fill="#a6a6a6"/>
  </g>
  <g id="#6e6e6eff">
   <path id="svg_21" d="m79.27,64.11c1.82,-0.68 2.39,2.36 0.61,2.69c-1.79,0.61 -2.33,-2.32 -0.61,-2.69z" fill="#6e6e6e"/>
   <path id="svg_22" d="m114.76,156.58c2.53,0.44 5.35,0.51 7.42,2.24c1.76,1.25 3.11,3.06 5.06,4.05c2.86,0.68 5.84,0.49 8.76,0.52c7.44,-0.14 14.88,0.08 22.31,-0.16c-9.07,1.08 -18.23,0.04 -27.33,0.47c-1.23,-0.05 -2.19,0.43 -2.88,1.44c-4.3,-0.93 -6.51,-5.48 -10.89,-6.4c0.19,1.65 0.41,3.31 0.62,4.97c-4,0.32 -7.84,-0.68 -11.3,-2.66c0.96,1.88 2.14,3.63 3.43,5.29c-1.38,-0.3 -2.76,-0.59 -4.14,-0.89c1.07,1.12 2.16,2.23 3.22,3.37c-1.42,-0.13 -2.84,-0.27 -4.26,-0.4c1.26,1.54 2.57,3.04 3.81,4.6c-1.61,-0.16 -3.21,-0.34 -4.81,-0.51c1.84,2.02 3.7,4.35 6.48,5.05c5.82,1.1 11.69,-0.28 17.17,-2.23c0.5,0.21 1.49,0.62 1.99,0.83c-4.86,3.13 -10.75,4.35 -16.46,4.45c-4.53,0.15 -8.46,-3.09 -10.65,-6.81c0.04,-5.21 1.54,-10.36 3.78,-15.04c2.77,1.05 5.54,2.13 8.4,2.93c0.07,-1.71 0.15,-3.41 0.27,-5.11z" fill="#6e6e6e"/>
  </g>
  <g id="#eff0f2ff">
   <path id="svg_23" d="m64.35,72.94c2.04,-1.03 4.2,-1.99 6.5,-2.24c1.18,0.68 2.3,1.45 3.37,2.3c-2.1,0.93 -4.24,1.8 -6.34,2.76c0.78,-0.03 2.34,-0.11 3.11,-0.14c-2.02,1.04 -2.61,3.14 -2.67,5.24c-2.63,-1.04 -5.75,-2.68 -8.46,-0.96c-4.23,2.7 -5.4,7.94 -7.88,12c-6.51,10.91 -12.84,22.32 -15.07,34.98c-0.86,4.4 -0.15,8.93 1.23,13.13c1.45,4.6 4.98,8.08 7.23,12.26c-5.68,0.49 -11.66,-0.08 -16.68,-2.97c-1.97,-1.11 -3.17,-3.24 -3.33,-5.47c-1.28,-11.22 3.21,-22.11 8.67,-31.66c4.1,-6.77 8.43,-13.48 13.88,-19.26c1.97,-2.56 2.6,-5.88 4.46,-8.52c3.13,-4.6 7.34,-8.4 11.98,-11.45z" fill="#eff0f2"/>
  </g>
  <g fill="#b5828c" id="#223843ff">
   <path id="svg_24" d="m62.7,118.77c18.29,-9.1 39.43,-12.91 59.63,-9.27c-2.64,1.4 -5.23,2.91 -7.81,4.43c3.48,12.64 4.53,25.87 3.56,38.93c-17.68,0.71 -35.39,0.17 -53.08,0.34c-4.91,-0.1 -9.93,0.54 -14.75,-0.73l-0.88,-0.29c1.64,-0.36 3.3,-0.7 4.94,-1.07c2.05,0.92 4.28,1.19 6.51,1.19c-0.77,-9.74 -2.17,-19.49 -1.88,-29.28c-0.18,-2.26 2.13,-3.29 3.76,-4.25z" fill="#d69ade"/>
  </g>
  <g id="#90a4b4ff">
   <path id="svg_25" d="m114.52,113.93c2.58,-1.52 5.17,-3.03 7.81,-4.43c10.99,-0.01 21.54,4.21 31.01,9.48c0.15,5.59 -0.64,11.14 -1.43,16.66c-0.5,5.7 -0.87,11.43 -2.06,17.05c-10.55,0.82 -21.19,0.33 -31.77,0.17c0.97,-13.06 -0.08,-26.29 -3.56,-38.93z" fill="#eab5f2"/>
  </g>
  <g id="#f7f8f8ff"/>
 </g>

</svg>